<svg xmlns="http://www.w3.org/2000/svg" width="64" height="64" viewBox="0 0 64 64">
  <defs>
    <style>
      .cls-1 {
        fill-rule: evenodd;
      }
    </style>
  </defs>
  <path id="_" data-name="{ }" class="cls-1" d="M9.792,52.855c0,5.952,2.624,8.511,7.551,8.511H21.5c1.472,0,2.56-.96,2.56-3.072s-1.088-3.072-2.56-3.072H20.1c-1.536,0-2.5-1.152-2.5-3.776V38.84c0-5.952-4.1-6.4-6.079-6.592V32.12c1.984-.192,6.079-0.64,6.079-6.591V12.922c0-2.624.96-3.776,2.5-3.776H21.5c1.472,0,2.56-.96,2.56-3.072S22.975,3,21.5,3h-4.16c-4.928,0-7.551,2.56-7.551,8.511V24.825c0,3.9-1.28,4.288-2.688,4.288-1.792,0-2.624,1.6-2.624,3.072S5.313,35.256,7.1,35.256c1.408,0,2.688.384,2.688,4.288V52.855ZM54.207,11.514C54.207,5.562,51.583,3,46.655,3H42.5c-1.472,0-2.56.96-2.56,3.072s1.088,3.072,2.56,3.072H43.9c1.536,0,2.5,1.152,2.5,3.776V25.529c0,5.952,4.1,6.4,6.08,6.591v0.128c-1.984.192-6.08,0.64-6.08,6.592V51.447c0,2.624-.96,3.776-2.5,3.776H42.5c-1.472,0-2.56.96-2.56,3.072s1.088,3.072,2.56,3.072h4.16c4.928,0,7.551-2.56,7.551-8.511V39.544c0-3.9,1.28-4.288,2.688-4.288,1.792,0,2.624-1.6,2.624-3.072s-0.832-3.072-2.624-3.072c-1.408,0-2.688-.384-2.688-4.288V11.514Z"/>
</svg>
